<?xml version="1.0" encoding="utf-8"?>
<!-- Generator: Adobe Illustrator 19.0.0, SVG Export Plug-In . SVG Version: 6.00 Build 0)  -->
<svg version="1.1" id="Layer_1" xmlns="http://www.w3.org/2000/svg" xmlns:xlink="http://www.w3.org/1999/xlink" x="0px" y="0px"
	 viewBox="0 0 332 324" style="enable-background:new 0 0 332 324;" xml:space="preserve">
<style type="text/css">
	.st0{fill:#FFFFFF;}
	.st1{fill:#FFFFFF;stroke:#000000;stroke-miterlimit:10;}
	.st2{fill:none;stroke:#000000;stroke-width:0.75;stroke-miterlimit:10;}
</style>
<g id="XMLID_4_">
	<path id="XMLID_173_" class="st0" d="M231.9,324c-0.5-5.5-0.6-10.4,3.7-15.4c2.6-3.1,3.6-8.8,3.1-13c-0.6-5.5,1.2-8.6,4.8-10.7
		c-2.6-9.5-5-18.6-7.6-28c-1.1,1.2-2.6,2.8-5.3,5.7c0-7.5,0-13.7,0-19.9c-0.4,0-0.9,0-1.3,0c-0.6,2-1.2,4-1.8,6
		c-0.4,0-0.9-0.1-1.3-0.1c-0.2-4.2-1.5-8.6-0.6-12.6c3-13.1,8.8-24.6,22.3-30.2c2-0.8,3.8-2.3,5.6-3.5
		c-14.9,2.8-23.2,13.2-30.1,25.6c0.7-2.5,1.4-5,2.1-7.6c1.6-2.3,4.2-4.4,4.6-6.8c1.5-8.4,7.4-12.7,14.2-16.3c1.5-0.8,3-1.6,4.5-2.4
		c1.5-0.8,2.9-1.5,4.4-2.3c-7.6,1.3-14,4.3-19.8,9.3c-5.4,4.8-5.8,11.4-8,17.4c0.1-1.8,0.2-3.6,0.3-5.4c-0.3-0.1-0.7-0.1-1-0.2
		c-0.9,2.5-1.7,4.9-2.6,7.4c1.1-11.9,0-24.3,6.7-35c-11.4,15.1-8.5,33-10.7,50.2c-0.5-6.2-1-12.3-1.5-18.5c-0.4-0.1-0.9-0.1-1.3-0.2
		c-0.8,2.5-1.7,5-2.5,7.5c-7.6,22.6-14.7,45.4-22.9,67.8c-4,10.8-10,20.9-15,31.4c-1.4,0-2.8,0-4.1,0c2.3-4.6,4.9-9.1,6.7-13.9
		c6.2-16.4,12.1-33,18.3-49.4c1.6-4.1,4.1-7.9,5.9-11.9c5.4-12.3,3.1-27.3,13-38c0.4-0.4,0.5-1.3,0.6-2c0.5-7.8,2.9-14.8,8.3-20.6
		c5.2-5.6,10.6-11,16.6-17.4c-1.3-1.1-2.8-2.9-4.7-3.8c-3.5-1.7-7.5-2.6-11-4.5c-8.6-4.6-17-9.6-25.6-14.2c-5-2.6-11.7-3-11.9-11.4
		c-1.3,1.5-1.9,2.2-2.6,3c-4.8,5.7-9,11.8-16.5,14.8c-3.2,1.3-5.3,5.2-7.9,7.9c0.4,0.4,0.7,0.7,1.1,1.1c6.9-4,15.4-5.5,20.5-12.8
		c-0.2,1.7-1.7,3.2-1.3,4c1.4,3.6-0.7,6.1-1.8,9.1c-0.7,1.9-1.9,4.2-1.4,5.8c1.5,4.7-1.2,7-4.5,8.6c-4.3,2-8.9,3.5-13.5,4.9
		c-1.5,0.5-3.3,0-4.9-0.2c-3.6-0.5-7.3-2-10.7-1.4c-3.8,0.8-6.3,0.2-8.9-2.5c0.5,1.8,1.3,3.6,2.5,4.9c4,4.2,4,13.2,0.3,17.4
		c-9.2,10.3-18.4,20.7-22.7,34.3c-1.4,4.5,0.7,7.3,5.4,6.5c4.2-0.8,5,0.7,4.1,4.4c-0.4,1.6-0.7,3.3-1.4,6.3c-2.1-2-3.5-3.3-4.3-4.1
		c-1.5,1.2-3.2,2.6-4.9,4c0.4,4.9,0.3,9.8-6.8,10.5c0.6,1.7,1,3.1,1.4,4.5c0.3-0.4,0.6-0.8,1-1.2c1,0.5,2.1,1.1,3.1,1.6
		c8.1-2.2,0.6-9.7,4.5-14.3c2.2,1.5,6.1,2.9,6.1,4.5c0.3,6,1.2,13.2-1.6,17.9c-3.9,6.8-0.4,11.8,0.5,17.5c0.6,4.3,2,8.8,1.4,12.9
		c-0.9,5.8-3.3,11.3-5.1,17c-3.5,0-6.9,0-10.4,0c-0.5-0.8-1.2-1.5-1.3-2.3c-0.3-2.2-1-6.2-0.4-6.4c5-1.8,6.8-5.2,6.8-10.3
		c0-1,1.4-2.1,1.8-2.5c-1.4-2.5-2.7-4.9-4-7.4c-1,0.3-2.5,0.7-3.6,1c-0.7,1.8-1,4.5-2,4.9c-5.6,1.8-5.4,6.2-5.3,10.6
		c0.1,4.2,0.5,8.3,0.8,12.4c-3.1,0-6.2,0-9.3,0c-0.3-3.5,1.7-7.6-2.5-10.6c-1.3,3.7-2.5,7.1-3.7,10.6 M404.7,281.5 M114.3,39
		c-1-1.3-2-2.5-3.6-4.5c2.9,0,4.5,0,6.1,0c-0.2-0.3-0.5-0.7-0.7-1c2.5-2.2,5-4.4,7.2-6.4c-9.9-7-11.4,6.1-18,9.3
		c0.2-2.1,0.3-3.4,0.4-4.8c-0.2-0.1-0.5-0.1-0.7-0.2c-1.6,3.6-3.1,7.2-5,11.5c2.6-0.4,4.1-0.7,5.7-1c-0.8-1-1.3-1.6-2.4-3
		c4.3,0,7.7,0,11.2,0c1.1,0.7,2.1,1.4,3.1,2c-3.6,1.2-7.2,3.4-10.6,3.2c-8.9-0.6-12.1,3.4-11.9,12.3c0.1,3.9-1.1,8.1-0.2,11.7
		c1.1,4.6-3.4,10.4,2.7,13.9c1.5,0.9,3.3,2.9,4.4,2.6c1.4-0.4,3.1-2.6,3.3-4.1c1-9.8,5.9-17.4,13.2-23.6c3.4-2.9,7.3-5.7,12.1-3.9
		c3.3,1.2,5.6,0.5,7.8-1.6c4.3,7,12.6,4.8,18.5,8.2c-0.9,0.8-1.6,1.5-2.7,2.5c1,0.1,1.6,0.4,2,0.2c6.5-1.6,6.8-1.2,7.7,5.2
		c0.4,2.6,2.3,5,3.8,7.4c0.8,1.3,2.2,2.3,3.3,3.5c-18.2,9.6-37.2,9.1-56.2,8.2c4.4,0.9,8.8,1.7,13.2,2.6c-0.1,0.6-0.1,1.3-0.2,1.9
		c-5.9,0-11.7-0.1-17.6,0c-1.4,0-2.8,0.6-4.1,0.9c0.7,1.4,1.1,3,2,4.2c3.9,5.1,9.3,7.6,15.6,9.2c7.3,1.9,9.7,1.7,13.7-4.4
		c1.1-1.7,2.6-3.1,4.5-5.3c2.7,4.3,4.6,8,7.2,11.3c2.6,3.3,5.8,6.1,8.8,9.2c0.4-0.4,0.8-0.8,1.1-1.2c-1.2-1.1-2.5-2.2-3.6-3.3
		c-3.3-3.1-3-6,1.2-7.7c3-1.3,6.5-1.7,9.8-2.1c2.3-0.3,4.8,0.2,7.1,0.3c0.3-1.9,0.6-3.4,1.1-5.8c2.7,4,4.8,7.3,7.1,10.7
		c1.3-1.2,2.1-2,2.5-2.4c2.2,1.4,4,2.5,6.4,4c0,0.9-0.3,2.5,0.1,3.9c0.5,1.7,1.7,3.3,2.5,4.9c1-1.4,2.6-2.7,2.9-4.3
		c1.8-8.5,3.5-17.1,4.8-25.7c1.1-7.4,0.7-15.1,2.7-22.3c2.1-7.8-0.1-13.2-5-18.8c-3.2-3.7-6.6-8.1-7.4-12.6
		c-1.7-9.9-9.7-13.2-16.3-18.3c0.6,1.8,1.9,3,2.7,4.6c0.9,1.8,1.3,3.8,2,5.7c-0.4,0.4-0.8,0.8-1.2,1.1c-1.3-0.8-2.9-1.4-3.7-2.6
		c-2.8-4.1-10.1-10.7-14.6-12.5c-0.4-0.2-1-0.6-1.1-1c-1.3-6.4-6.4-3.9-10.2-4.3c-2.6-0.3-5.4,0.3-7.9-0.5c-5.3-1.6-6.4-1.4-9.1,4.2
		c1-0.3,1.8-0.5,2.6-0.7c-5.2,1.2-9.3,3.8-12.9,7.8c3.7-0.4,6.4-0.6,9.2-0.9c1.5,0.4,2.9,0.8,5.6,1.4c-2.8,1.1-4.3,1.6-6.5,2.5
		c2.3,0.7,3.5,1,4.5,1.3c-1.3,7-4.8,11.8-12.3,12.6c-0.3,1.2-0.6,2.5-0.9,3.8c1,0.2,1.9,0.3,2.9,0.5c0,0.1-0.1,0.2-0.1,0.3
		C120.4,39,117.4,39,114.3,39z M86.9,193.1c-0.5-0.2-0.9-0.4-1.4-0.6c-1.3,2.3-2.5,4.6-3.6,6.4c0.4-6.1,0.8-12.8,1.2-19.5
		c-0.4,0-0.9-0.1-1.3-0.1c-2.1,7-2,15.2-9.7,19.3c0.9,1.2,1.6,2.3,2.8,4c-4.4-1.3-8.1-2.4-12.7-3.8c2,3.3,3.6,5.9,5.4,8.8
		c-12.8-5-18.6,7.2-28.6,9.9c4.9,5.4,9.4,10.2,14.4,15.6c8.1-3.4,17.5-7.4,27-11.4c0.5,4.1,1,7.7,1.4,11.3c0.2,0,0.4-0.1,0.6-0.1
		c0.5-5.6,1.1-11.3,1.6-16.9c0.4,0,0.8,0,1.2,0c0,2.9,0,5.8,0,8.7c0.4,0,0.8,0.1,1.2,0.1c3.1-15.2,6.2-30.5,9.4-45.7
		c-2.6,4-4.3,8.4-5.6,12.9c-1.3,4.5-2.3,9-3.4,13.5c-0.3-0.1-0.5-0.1-0.8-0.2C86.3,201.2,86.6,197.2,86.9,193.1z M9.8,253
		c6.6-0.8,13.4-5.3,15.8-9.4c0.6-1,1.6-1.8,2.5-2.5c4.5-3.3,9-11.2,2.8-17.3c-3.2-3.2-5.8-7-9.4-11.4C17.5,226.3,13.8,239.3,9.8,253
		z M63.1,104.7c-6.4,3.8-12.3,7.2-17.5,10.3c0.7,0.3,2.7,1.1,3.9,1.6c0,5.4,0,9.9,0,14.4c0.5,0,1,0.1,1.5,0.1
		c0.4-0.9,0.8-1.9,1.2-2.8c0.3,0.1,0.5,0.1,0.8,0.2c-0.5,3.5-1.1,7.1-1.6,10.6c0.4,0.3,0.9,0.5,1.3,0.8
		c-0.6-12.3,10.5-16.2,14.8-24.4c2.3,1.5,3.8,2.5,5.4,3.6c0.7-4.8,1.2-8.9,1.9-13.4c-4.9,1.7-9.4,3.2-14.3,4.8
		C61.4,108.5,62.2,106.7,63.1,104.7z M12.7,179c4.4,3.9,9.4,6.3,14.9,4.3c4.9-1.7,9-5.6,13.9-6.9c8-2.1,1.1-10,5.9-13.2
		c-2,0.8-2.8,2.7-4.2,3.8c-1.1,0.9-3.3,1.4-4.5,0.9c-5.6-2.5-11.1-5.5-16.7-8.1c-1.5-0.7-3.4-0.9-5.1-1.3c-0.4,0.7-0.7,1.3-1.1,2
		c4.2,4.3,8.5,8.5,12.7,12.8C26.6,183.2,18.8,178.4,12.7,179z M245.9,266.2c-2.2,18.4,6.9,36.1,22.5,42.5
		C259.7,294.4,244.6,284.5,245.9,266.2z M104.2,100.9c0-4.5,0-8.6,0-13.2c1.6-0.3,3.5-0.7,5.4-1.1c0-0.3-0.1-0.6-0.1-0.9
		c-5.2,0.5-10.4,1.1-15.5,1.6C92.8,94,98.4,101.7,104.2,100.9z M82.9,285.3c0.3,0.1,0.7,0.1,1,0.2c0-15.3,0-30.6,0-45.9
		c-0.3,0-0.7,0-1,0C82.9,254.8,82.9,270,82.9,285.3z M107.6,189.7c7-5.7,15.6-26.6,15.1-33C117.8,167.3,112.7,178.5,107.6,189.7z
		 M289.6,224c-4.9-9.1-23.9-12.7-33.2-8.5C269.1,213.6,279.3,216.9,289.6,224z M314.5,253.3c-1.2-7-6.6-7.9-12.1-8.7
		C306.4,247.5,310.4,250.4,314.5,253.3z M105.9,289.2c4.7-4.3,5.1-11.3,0.9-13.3C106.5,280.2,106.2,284.7,105.9,289.2z M95,202.6
		c0.6,0.2,1.1,0.4,1.7,0.6c2.3-4.9,4.7-9.8,7-14.7c-0.5-0.2-0.9-0.4-1.4-0.7C99.9,192.8,97.5,197.7,95,202.6z M78.4,129.3
		c0.8,0.5,1.5,1,2.3,1.5c1.5-2.5,3-5,4.5-7.5c-0.7-0.4-1.4-0.8-2-1.3C81.6,124.4,80,126.9,78.4,129.3z M88.9,169
		c-0.5-0.1-0.9-0.3-1.4-0.4c-1.5,4.6-3,9.1-4.5,13.7c0.5,0.2,1,0.3,1.6,0.5C86.1,178.1,87.5,173.6,88.9,169z"/>
	<path id="XMLID_166_" d="M118,324c1.8-5.6,4.2-11.2,5.1-17c0.6-4.1-0.8-8.6-1.4-12.9c-0.8-5.8-4.3-10.8-0.5-17.5
		c2.7-4.8,1.8-11.9,1.6-17.9c-0.1-1.6-3.9-3-6.1-4.5c-3.9,4.6,3.6,12.1-4.5,14.3c-1-0.5-2-1.1-3.1-1.6c-0.3,0.4-0.6,0.8-1,1.2
		c-0.4-1.4-0.9-2.8-1.4-4.5c7.1-0.8,7.2-5.7,6.8-10.5c1.8-1.5,3.5-2.9,4.9-4c0.8,0.8,2.2,2.1,4.3,4.1c0.7-3,1-4.7,1.4-6.3
		c0.9-3.6,0.1-5.1-4.1-4.4c-4.6,0.9-6.8-1.9-5.4-6.5c4.2-13.6,13.5-23.9,22.7-34.3c3.8-4.2,3.7-13.2-0.3-17.4c-1.2-1.3-2-3-2.5-4.9
		c2.6,2.7,5.1,3.3,8.9,2.5c3.3-0.7,7.1,0.9,10.7,1.4c1.6,0.2,3.4,0.6,4.9,0.2c4.6-1.4,9.2-2.9,13.5-4.9c3.3-1.6,6-3.9,4.5-8.6
		c-0.5-1.6,0.7-3.9,1.4-5.8c1.1-2.9,3.2-5.5,1.8-9.1c-0.3-0.8,1.1-2.3,1.3-4c-5.1,7.3-13.5,8.8-20.5,12.8c-0.4-0.4-0.7-0.7-1.1-1.1
		c2.6-2.7,4.7-6.6,7.9-7.9c7.5-3,11.7-9.1,16.5-14.8c0.7-0.8,1.3-1.5,2.6-3c0.2,8.4,6.9,8.8,11.9,11.4c8.6,4.6,17,9.6,25.6,14.2
		c3.5,1.8,7.4,2.7,11,4.5c1.9,0.9,3.3,2.7,4.7,3.8c-6.1,6.3-11.4,11.8-16.6,17.4c-5.4,5.8-7.8,12.8-8.3,20.6c0,0.7-0.1,1.5-0.6,2
		c-9.9,10.8-7.6,25.7-13,38c-1.8,4.1-4.4,7.8-5.9,11.9c-6.2,16.4-12.1,33-18.3,49.4c-1.8,4.8-4.5,9.3-6.7,13.9c-4.8,0-9.7,0-14.5,0
		c-2.5-6.2-2.7-12.4,1.2-18.6c-0.6-0.2-1.2-0.4-1.8-0.5c-0.9,1.4-1.8,2.8-2.5,3.9c-2.5-2.1-4.4-3.7-6.2-5.2c-0.5,0.1-1,0.2-1.5,0.3
		c4.1,5.5,4.2,10.2-1.1,14c-0.7-2.9-1.3-5.5-1.9-8.2c-0.6,0.1-1.2,0.2-1.8,0.2c-0.3,2.5-0.5,5-0.9,7.5c-0.3,2.2-0.8,4.4-1.2,6.6
		C131.8,324,124.9,324,118,324z M160.4,246.4c0.9,3.7,1.8,7.4,2.6,11.1c-0.7,0.1-1.3,0.2-2,0.3c-0.1-1.8,0.1-3.8-0.4-5.5
		c-0.5-1.8-1.6-3.4-2.4-5.2c-0.5,0.2-0.9,0.4-1.4,0.7c0,6.2,0,12.3,0,18.9c10.1-0.6,11.5-8.5,14.1-12.6c-2.2-4-3.6-6.8-5-9.3
		c-2,0.6-3.9,1.1-5.7,1.7c1.1-1.7,1.8-4.2,3.4-5.1c8-4.5,6.2-12.2,7.4-19.4c-1.3,0-2.2,0.2-2.9,0c-6-2.1-7.3-1.4-8.5,4.6
		c-0.5,2.7-1.4,5.2-1.8,7.9C157.3,238.7,155.4,243.3,160.4,246.4z M126.9,251.2c-0.9,0.8-1.9,1.6-3.4,3c4,1.1,7.2,2,10.5,2.9
		c0.3-5,0-5.2-7.2-5.8c1.4-0.5,3.2-1.9,4.1-1.4c3.7,1.8,4.6-0.1,5-3.1c0.3-1.9,0.3-3.8,0.8-5.6c2.4-7.3,0.3-15.7,5.8-23.1
		c-1.5,6.2,1.7,8.6,6.6,9.5c2.6,0.4,5.2,0.7,8.5,1.1c0-1.4-0.8-4.3,0.1-5.2c4.2-3.9,0.5-4.4-2-4.9c-8.3-1.9-11.6-5.2-12.8-13.7
		c-0.2-1.2-0.4-2.4-0.7-3.7c-0.5-0.2-0.9-0.3-1.4-0.5c-3.5,5.6-7.1,11.1-10.5,16.7c-0.5,0.8-0.4,2.7,0.2,3.1c3.9,3,0.9,6.4,1.7,9.5
		c-0.4,0-0.9,0.1-1.3,0.1c0-2.4,0-4.7,0-7.1c-0.5-0.1-0.9-0.1-1.4-0.2c-1.8,8.9-3.6,17.7-5.3,26.6C124.2,250,126,250.7,126.9,251.2z
		 M170,276.1c-6.8-6-12.7-1.8-19.6,2c1.8-5.3,1.9-9-4.4-8.9c-1.3,7.6-2.3,14.9-3.8,22.2c-0.9,4.6,0.6,6.5,5.6,6.1
		c0.5-3.5,0.8-7.1,1.5-10.6c0.3-1.5,1.2-3.6,2.3-4c3.8-1.4,7.9-2.1,11.1-2.9c0.2,2.2,0.4,4.2,0.6,6.3c0.1,0.8,0.8,1.9,0.5,2.4
		c-0.7,1.2-1.8,2-2.8,3c-0.3-1.2-0.7-2.3-1-3.5c-0.4-1.7-0.9-3.3-1.4-5.3c-9.4,5.4-8.8,8.5,2.7,16.6c7.8-14.2,15.5-28.4,23.4-42.9
		c6.1,1.6,7.8-4.7,7.8-7.9c0-2.8-4.8-5.7-8.1-9.3C179.3,252.5,174.8,263.9,170,276.1z M128.1,259.9c-0.9,8.5-1.8,16.5-2.8,25.1
		c3.3-1.2,5.9-2.2,8.8-3.2c-2.3,9.5-2.1,10.4,3.6,12.5c1.2-8.9,2.5-17.6,3.9-28c-3.5,2.5-6,4.3-8.4,6
		C132,268.1,138.4,261.2,128.1,259.9z M139.1,241.8c2.6,1,4.9,2.6,6.9,2.3c2-0.3,3.7-2.6,5.5-4c0.2,0.1,0.4,0.2,0.5,0.4
		c-0.9,1.5-1.9,2.9-3.1,4.8c1.5,0.6,2.9,1.2,4.4,1.9c0.5-1.2,0.8-1.8,1-2.5c2.4-7.4,1.3-9.1-6.1-9.7c-0.7,0-1.5,0.2-1.9-0.1
		c-4.8-3-4.7-3.1-5.7,2.2C140.4,238.4,139.9,239.6,139.1,241.8z"/>
	<path id="XMLID_165_" d="M174.9,324c5.1-10.4,11.1-20.5,15-31.4c8.2-22.4,15.4-45.2,22.9-67.8c0.8-2.5,1.7-5,2.5-7.5
		c0.4,0.1,0.9,0.1,1.3,0.2c0.5,6.2,1,12.3,1.5,18.5c2.2-17.1-0.7-35.1,10.7-50.2c-6.7,10.8-5.6,23.1-6.7,35c0.9-2.5,1.7-4.9,2.6-7.4
		c0.3,0.1,0.7,0.1,1,0.2c-0.1,1.8-0.2,3.6-0.3,5.4c0,0.4,0,0.8,0,1.2c-0.7,2.5-1.4,5-2.1,7.6c6.9-12.4,15.1-22.8,30.1-25.6
		c-1.9,1.2-3.6,2.6-5.6,3.5c-13.5,5.6-19.3,17.1-22.3,30.2c-0.9,3.9,0.3,8.4,0.6,12.6c0.4,0,0.9,0.1,1.3,0.1c0.6-2,1.2-4,1.8-6
		c0.4,0,0.9,0,1.3,0c0,6.2,0,12.4,0,19.9c2.7-2.9,4.2-4.5,5.3-5.7c2.5,9.4,5,18.5,7.6,28c-3.6,2.1-5.5,5.2-4.8,10.7
		c0.5,4.3-0.5,10-3.1,13c-4.2,4.9-4.2,9.8-3.7,15.4C212.9,324,193.9,324,174.9,324z"/>
	<path id="XMLID_164_" d="M100.4,324c-0.3-4.1-0.7-8.3-0.8-12.4c-0.1-4.4-0.3-8.8,5.3-10.6c1-0.3,1.3-3.1,2-4.9
		c1.1-0.3,2.6-0.8,3.6-1c1.3,2.5,2.6,4.9,4,7.4c-0.4,0.5-1.8,1.5-1.8,2.5c0,5.1-1.8,8.5-6.8,10.3c-0.6,0.2,0.1,4.2,0.4,6.4
		c0.1,0.8,0.9,1.6,1.3,2.3C105.2,324,102.8,324,100.4,324z"/>
	<path id="XMLID_163_" class="st0" d="M138.7,324c0.4-2.2,0.9-4.4,1.2-6.6c0.4-2.5,0.6-5,0.9-7.5c0.6-0.1,1.2-0.2,1.8-0.2
		c0.6,2.6,1.3,5.3,1.9,8.2c5.3-3.8,5.1-8.5,1.1-14c0.5-0.1,1-0.2,1.5-0.3c1.9,1.6,3.8,3.2,6.2,5.2c0.7-1.1,1.6-2.5,2.5-3.9
		c0.6,0.2,1.2,0.4,1.8,0.5c-3.9,6.2-3.7,12.4-1.2,18.6C150.4,324,144.6,324,138.7,324z"/>
	<path id="XMLID_162_" d="M84.9,324c1.2-3.4,2.4-6.9,3.7-10.6c4.3,3,2.2,7,2.5,10.6C89,324,86.9,324,84.9,324z"/>
	<path id="XMLID_158_" d="M114.4,39c3,0,6.1,0,9.1,0c0-0.1,0.1-0.2,0.1-0.3c-1-0.2-1.9-0.3-2.9-0.5c0.3-1.3,0.6-2.5,0.9-3.8
		c7.5-0.8,11-5.6,12.3-12.6c-1-0.3-2.3-0.7-4.5-1.3c2.3-0.9,3.7-1.4,6.5-2.5c-2.7-0.7-4.1-1.1-5.6-1.4c0,0,0.1,0.1,0.1,0.1
		c1.4-0.5,2.8-0.9,4.2-1.5c2-0.9,3.9-1.9,6.4-3.2c-3.2-1.1-4.9-1.6-6.5-2.2c-0.3-0.1-0.4-0.2-0.4-0.2c-0.8,0.2-1.5,0.4-2.6,0.7
		c2.8-5.6,3.8-5.8,9.1-4.2c2.5,0.7,5.3,0.2,7.9,0.5c3.8,0.5,8.9-2,10.2,4.3c0.1,0.4,0.7,0.8,1.1,1c4.4,1.9,11.8,8.4,14.6,12.5
		c0.8,1.2,2.4,1.7,3.7,2.6c0.4-0.4,0.8-0.8,1.2-1.1c-0.6-1.9-1.1-3.9-2-5.7c-0.8-1.5-2.1-2.8-2.7-4.6c6.6,5,14.6,8.3,16.3,18.3
		c0.8,4.5,4.2,8.9,7.4,12.6c4.9,5.6,7.1,11.1,5,18.8c-1.9,7.1-1.6,14.9-2.7,22.3c-1.3,8.6-3,17.2-4.8,25.7c-0.3,1.6-1.9,2.8-2.9,4.3
		c-0.9-1.6-2-3.2-2.5-4.9c-0.4-1.4-0.1-3.1-0.1-3.9c-2.3-1.5-4.2-2.6-6.4-4c-0.4,0.4-1.2,1.1-2.5,2.4c-2.3-3.4-4.4-6.6-7.1-10.7
		c-0.5,2.4-0.7,4-1.1,5.8c-2.4-0.1-4.8-0.6-7.1-0.3c-3.3,0.4-6.8,0.8-9.8,2.1c-4.2,1.7-4.4,4.6-1.2,7.7c1.2,1.1,2.4,2.2,3.6,3.3
		c-0.4,0.4-0.8,0.8-1.1,1.2c-2.9-3-6.2-5.9-8.8-9.2c-2.6-3.3-4.5-7.1-7.2-11.3c-1.9,2.2-3.4,3.6-4.5,5.3c-3.9,6.1-6.3,6.3-13.7,4.4
		c-6.3-1.6-11.6-4.1-15.6-9.2c-0.9-1.2-1.4-2.8-2-4.2c1.4-0.3,2.8-0.9,4.1-0.9c5.9-0.1,11.7,0,17.6,0c0.1-0.6,0.1-1.3,0.2-1.9
		c-4.4-0.9-8.8-1.7-13.2-2.6c19,0.9,37.9,1.4,56.2-8.2c-1.2-1.2-2.5-2.2-3.3-3.5c-1.5-2.4-3.4-4.8-3.8-7.4c-0.9-6.4-1.1-6.8-7.7-5.2
		c-0.5,0.1-1-0.1-2-0.2c1-1,1.8-1.7,2.7-2.5c-5.9-3.4-14.2-1.2-18.5-8.2c-2.2,2.1-4.5,2.9-7.8,1.6c-4.8-1.8-8.7,1-12.1,3.9
		c-7.2,6.2-12.2,13.8-13.2,23.6c-0.2,1.6-1.9,3.7-3.3,4.1c-1.1,0.3-2.9-1.7-4.4-2.6c-6.1-3.6-1.6-9.3-2.7-13.9
		c-0.9-3.7,0.3-7.8,0.2-11.7c-0.2-9,3-12.9,11.9-12.3c3.4,0.2,6.9-2,10.6-3.2C116.6,40.3,115.5,39.7,114.4,39L114.4,39z M190,47.6
		c-0.8-3.3-2-8.2-3.4-13c-0.2-0.8-1.7-1.3-2.6-1.9c-0.8,1.3-1.9,2.4-2.4,3.8c-0.2,0.6,0.5,1.6,0.4,1.4c-1.4,1.2-2.8,1.7-2.9,2.4
		c-0.7,3.1,3.9,9.8,7.1,11c-0.3-1.9-0.6-3.9-0.9-5.9c0.4-0.3,0.9-0.6,1.3-0.9C188,45.8,189.5,47.2,190,47.6z"/>
	<path id="XMLID_157_" d="M86.9,193.1c-0.3,4.1-0.6,8.1-0.9,12.2c0.3,0.1,0.5,0.1,0.8,0.2c1.1-4.5,2.1-9.1,3.4-13.5
		c1.3-4.5,3-8.8,5.6-12.9c-3.1,15.2-6.2,30.5-9.4,45.7c-0.4,0-0.8-0.1-1.2-0.1c0-2.9,0-5.8,0-8.7c-0.4,0-0.8,0-1.2,0
		c-0.5,5.6-1.1,11.3-1.6,16.9c-0.2,0-0.4,0.1-0.6,0.1c-0.4-3.6-0.9-7.2-1.4-11.3c-9.5,4-19,8-27,11.4c-5-5.4-9.5-10.2-14.4-15.6
		c10-2.7,15.8-14.9,28.6-9.9c-1.8-2.9-3.4-5.5-5.4-8.8c4.6,1.4,8.2,2.5,12.7,3.8c-1.2-1.7-1.9-2.7-2.8-4c7.7-4.1,7.6-12.3,9.7-19.3
		c0.4,0,0.9,0.1,1.3,0.1c-0.4,6.7-0.8,13.4-1.2,19.5c1-1.8,2.3-4.1,3.6-6.4C86,192.7,86.4,192.9,86.9,193.1z"/>
	<path id="XMLID_156_" d="M9.8,253c4-13.8,7.7-26.8,11.6-40.6c3.6,4.4,6.2,8.2,9.4,11.4c6.2,6.1,1.7,14-2.8,17.3
		c-0.9,0.7-1.9,1.5-2.5,2.5C23.3,247.7,16.4,252.2,9.8,253z"/>
	<path id="XMLID_155_" d="M63.1,104.7c-0.9,2-1.7,3.8-2.5,5.7c4.9-1.6,9.4-3.2,14.3-4.8c-0.6,4.5-1.2,8.6-1.9,13.4
		c-1.6-1.1-3.2-2.1-5.4-3.6c-4.4,8.3-15.4,12.2-14.8,24.4c-0.4-0.3-0.9-0.5-1.3-0.8c0.5-3.5,1.1-7.1,1.6-10.6
		c-0.3-0.1-0.5-0.1-0.8-0.2c-0.4,0.9-0.8,1.9-1.2,2.8c-0.5,0-1-0.1-1.5-0.1c0-4.5,0-9,0-14.4c-1.2-0.5-3.2-1.3-3.9-1.6
		C50.7,111.9,56.6,108.5,63.1,104.7z"/>
	<path id="XMLID_154_" d="M12.7,179c6.1-0.6,13.9,4.2,15.9-5.6c-4.2-4.3-8.5-8.5-12.7-12.8c0.4-0.7,0.7-1.3,1.1-2
		c1.7,0.4,3.5,0.5,5.1,1.3c5.6,2.6,11,5.6,16.7,8.1c1.2,0.5,3.4,0,4.5-0.9c1.4-1.1,2.2-3,4.2-3.8c-4.9,3.1,2,11.1-5.9,13.2
		c-4.9,1.3-9.1,5.2-13.9,6.9C22.1,185.2,17.1,182.9,12.7,179z"/>
	<path id="XMLID_153_" d="M245.9,266.2c-1.3,18.3,13.9,28.2,22.5,42.5C252.8,302.3,243.7,284.6,245.9,266.2z"/>
	<path id="XMLID_152_" d="M104.2,100.9C98.4,101.7,92.8,94,94,87.2c5.1-0.5,10.3-1,15.5-1.6c0,0.3,0.1,0.6,0.1,0.9
		c-1.9,0.4-3.8,0.8-5.4,1.1C104.2,92.3,104.2,96.4,104.2,100.9z"/>
	<path id="XMLID_151_" d="M114.5,39c-3.4,0-6.8,0-11.2,0c1.1,1.4,1.6,2.1,2.4,3c-1.6,0.3-3.1,0.5-5.7,1c1.9-4.3,3.4-7.9,5-11.5
		c0.2,0.1,0.5,0.1,0.7,0.2c-0.1,1.3-0.2,2.6-0.4,4.8c6.7-3.2,8.1-16.3,18-9.3c-2.2,2-4.7,4.2-7.2,6.4c0.2,0.3,0.5,0.7,0.7,1
		c-1.6,0-3.2,0-6.1,0c1.6,2,2.6,3.2,3.6,4.5C114.4,39,114.5,39,114.5,39z"/>
	<path id="XMLID_150_" d="M225.6,220.3c0-0.4,0-0.8,0-1.2c2.2-6,2.5-12.6,8-17.4c5.7-5.1,12.1-8.1,19.8-9.3
		c-1.5,0.8-2.9,1.5-4.4,2.3c-1.5,0.8-3,1.6-4.5,2.4c-6.8,3.7-12.6,7.9-14.2,16.3C229.7,215.9,227.2,218,225.6,220.3z"/>
	<path id="XMLID_149_" d="M82.9,285.3c0-15.3,0-30.5,0-45.8c0.3,0,0.7,0,1,0c0,15.3,0,30.6,0,45.9C83.6,285.4,83.2,285.3,82.9,285.3
		z"/>
	<path id="XMLID_148_" d="M107.6,189.7c5.1-11.2,10.3-22.4,15.1-33C123.1,163.1,114.5,184,107.6,189.7z"/>
	<path id="XMLID_147_" d="M289.6,224c-10.3-7-20.5-10.4-33.2-8.5C265.7,211.3,284.7,214.8,289.6,224z"/>
	<path id="XMLID_146_" d="M314.5,253.3c-4-2.9-8.1-5.8-12.1-8.7C307.9,245.3,313.2,246.3,314.5,253.3z"/>
	<path id="XMLID_145_" d="M134.1,9.6c0,0,0.2,0.1,0.4,0.2c-1.3,1.2-2.6,2.5-4,3.5c-1.5,1.1-3.9,2.1-0.1,3.3c0,0-0.1-0.1-0.1-0.1
		c-2.7,0.3-5.5,0.5-9.2,0.9C124.8,13.4,128.9,10.7,134.1,9.6z"/>
	<path id="XMLID_144_" d="M105.9,289.2c0.3-4.5,0.6-9,0.9-13.3C111,277.9,110.6,284.9,105.9,289.2z"/>
	<path id="XMLID_143_" d="M95,202.6c2.5-4.9,4.9-9.8,7.4-14.7c0.5,0.2,0.9,0.4,1.4,0.7c-2.3,4.9-4.7,9.8-7,14.7
		C96.2,203,95.6,202.8,95,202.6z"/>
	<path id="XMLID_141_" d="M78.4,129.3c1.6-2.4,3.2-4.9,4.8-7.3c0.7,0.4,1.4,0.8,2,1.3c-1.5,2.5-3,5-4.5,7.5
		C79.9,130.3,79.2,129.8,78.4,129.3z"/>
	<path id="XMLID_140_" d="M88.9,169c-1.4,4.6-2.9,9.1-4.3,13.7c-0.5-0.2-1-0.3-1.6-0.5c1.5-4.6,3-9.1,4.5-13.7
		C88,168.7,88.5,168.8,88.9,169z"/>
	<path id="XMLID_139_" class="st0" d="M170,276.1c4.8-12.2,9.4-23.6,14.5-36.6c3.3,3.6,8.1,6.5,8.1,9.3c0,3.2-1.6,9.4-7.8,7.9
		c-7.9,14.5-15.7,28.7-23.4,42.9c-11.5-8.1-12.2-11.2-2.7-16.6c0.5,1.9,0.9,3.6,1.4,5.3c0.3,1.2,0.7,2.3,1,3.5c1-1,2.1-1.9,2.8-3
		c0.3-0.5-0.4-1.6-0.5-2.4c-0.2-2-0.4-4.1-0.6-6.3c-3.2,0.8-7.2,1.5-11.1,2.9c-1.1,0.4-2,2.5-2.3,4c-0.7,3.5-1.1,7.1-1.5,10.6
		c-5,0.4-6.5-1.5-5.6-6.1c1.5-7.2,2.5-14.5,3.8-22.2c6.3-0.1,6.2,3.6,4.4,8.9C157.3,274.3,163.1,270.1,170,276.1z"/>
	<path id="XMLID_138_" class="st0" d="M126.9,251.2c-0.9-0.5-2.8-1.2-2.7-1.6c1.6-8.9,3.5-17.8,5.3-26.6c0.5,0.1,0.9,0.1,1.4,0.2
		c0,2.4,0,4.7,0,7.1c0.4,0,0.9-0.1,1.3-0.1c-0.8-3.1,2.2-6.5-1.7-9.5c-0.6-0.4-0.6-2.4-0.2-3.1c3.4-5.6,7-11.1,10.5-16.7
		c0.5,0.2,0.9,0.3,1.4,0.5c0.2,1.2,0.5,2.4,0.7,3.7c1.3,8.5,4.5,11.8,12.8,13.7c2.4,0.5,6.2,1,2,4.9c-1,0.9-0.1,3.8-0.1,5.2
		c-3.4-0.4-6-0.7-8.5-1.1c-4.9-0.9-8.1-3.3-6.6-9.5c-5.5,7.4-3.3,15.7-5.8,23.1c-0.6,1.8-0.6,3.7-0.8,5.6c-0.4,3-1.3,4.9-5,3.1
		c-0.9-0.4-2.7,0.9-4.1,1.4C126.8,251.3,126.9,251.2,126.9,251.2z"/>
	<path id="XMLID_137_" class="st0" d="M128.1,259.9c10.3,1.3,3.9,8.3,5.2,12.4c2.4-1.7,4.9-3.5,8.4-6c-1.5,10.4-2.7,19.1-3.9,28
		c-5.7-2.1-5.9-3-3.6-12.5c-2.9,1-5.5,2-8.8,3.2C126.3,276.4,127.1,268.3,128.1,259.9z"/>
	<path id="XMLID_136_" class="st0" d="M160.4,246.4c-5-3.1-3.2-7.7-2.5-11.9c0.4-2.7,1.3-5.3,1.8-7.9c1.2-6,2.5-6.7,8.5-4.6
		c0.7,0.2,1.5,0,2.9,0c-1.2,7.3,0.6,15-7.4,19.4c-1.6,0.9-2.3,3.3-3.4,5.1L160.4,246.4z"/>
	<path id="XMLID_135_" class="st0" d="M160.3,246.5c1.8-0.5,3.7-1.1,5.7-1.7c1.4,2.5,2.8,5.3,5,9.3c-2.6,4.1-4,12-14.1,12.6
		c0-6.6,0-12.7,0-18.9c0.5-0.2,0.9-0.4,1.4-0.7c0.8,1.7,1.9,3.4,2.4,5.2c0.5,1.7,0.3,3.7,0.4,5.5c0.7-0.1,1.3-0.2,2-0.3
		c-0.9-3.7-1.8-7.4-2.6-11.1C160.4,246.4,160.3,246.5,160.3,246.5z"/>
	<path id="XMLID_134_" class="st0" d="M139.1,241.8c0.7-2.2,1.3-3.4,1.5-4.7c1-5.2,0.9-5.2,5.7-2.2c0.5,0.3,1.3,0,1.9,0.1
		c7.4,0.6,8.5,2.3,6.1,9.7c-0.2,0.6-0.5,1.2-1,2.5c-1.5-0.7-2.9-1.3-4.4-1.9c1.2-1.9,2.2-3.4,3.1-4.8c-0.2-0.1-0.4-0.2-0.5-0.4
		c-1.8,1.4-3.5,3.7-5.5,4C144.1,244.4,141.7,242.8,139.1,241.8z"/>
	<path id="XMLID_133_" class="st0" d="M126.8,251.3c7.2,0.6,7.5,0.8,7.2,5.8c-3.3-0.9-6.4-1.8-10.5-2.9c1.5-1.3,2.4-2.2,3.4-3
		C126.9,251.2,126.8,251.3,126.8,251.3z"/>
	<path id="XMLID_132_" class="st0" d="M190,47.6c-0.5-0.4-2-1.8-3.4-3.1c-0.4,0.3-0.9,0.6-1.3,0.9c0.3,2,0.6,3.9,0.9,5.9
		c-3.2-1.1-7.7-7.9-7.1-11c0.2-0.8,1.5-1.3,2.9-2.4c0.1,0.2-0.6-0.8-0.4-1.4c0.5-1.4,1.6-2.6,2.4-3.8c0.9,0.6,2.4,1.1,2.6,1.9
		C188,39.4,189.1,44.3,190,47.6z"/>
	<path id="XMLID_131_" class="st0" d="M130.5,16.6c-3.8-1.2-1.4-2.2,0.1-3.3c1.4-1.1,2.6-2.4,4-3.5c1.7,0.6,3.3,1.1,6.5,2.2
		c-2.5,1.3-4.4,2.3-6.4,3.2C133.3,15.7,131.9,16.1,130.5,16.6z"/>
	<path id="XMLID_3_" class="st0" d="M152.7,111.3l2.6,0.5L152.7,111.3z"/>
</g>
<polyline id="XMLID_1_" class="st1" points="101.8,104.7 105.9,117.5 109.7,130.8 119,147 133.5,161 149.2,165.5 161.1,163.9 "/>
<polyline id="XMLID_2_" class="st1" points="193,117.5 190,130.8 187,137.1 "/>
<path id="XMLID_7_" class="st2" d="M165.2,135.6l-7.4,2.3l-3.1,0.5c0,0-0.9-0.2-2.5,0.4s-3,1.1-3.9,1.3c-0.8,0.1-2.6,0.4-2.6,0.4
	l-2.3,0.4l-2.1,0.3l-2.4-0.5l-2.8,0.4c0,0-0.2-1.2-1.1-0.8c-0.9,0.5-2,0.3-2,0.3l-2.1,0.3l-1.4,0.2l1.7-2.9l3.7-1.9l5.1-0.8l4.1-0.6
	c0,0,1.3,0.5,2.7,0.3s4.6-1.4,4.6-1.4s4.3-0.7,4.8-0.7c0.5-0.1,3.6,0.6,4.5,0.8S165.2,135.6,165.2,135.6z"/>
<path id="XMLID_6_" class="st2" d="M164.8,136.9c0,0-2.7,2.1-2.8,2.6s-3.7,3.1-4.7,3.6c-0.9,0.5-8.5,2.7-9,2.7c-0.5,0.1-6.8,1-6.8,1
	l-9.6-2.7l-1.9-3.1"/>
<path id="XMLID_5_" class="st2" d="M138.2,99.7l-1.2,4.5c0,0-0.7,0.5-1.2,1.5s-1.5,2.3-1.3,3.3s0.3,2.5,0,3
	c-0.3,0.5,0.7,0.2-1.1,1.8c-1.8,1.7-4.7,3.7-4.7,3.7c-0.5,2.5,1.7,5.5,1.7,5.5l2,1l1-1.8l2.5-1l2.3,1.2v0.8l1.7,0.8l1.8,0.7"/>
</svg>
