
<svg version="1.1" xmlns="http://www.w3.org/2000/svg" xmlns:xlink="http://www.w3.org/1999/xlink" x="0px" y="0px"
	 viewBox="0 0 1366 412" style="enable-background:new 0 0 1366 412;" xml:space="preserve">

<g id="Background" class="st0">
	<g class="st1">
		<rect y="-266.5" class="st2" width="1366" height="768"/>
		<path class="st3" d="M0-266.5h1366v27.6H0V-266.5L0-266.5z M0-232c455.3,0,910.7,0,1366,0c0,8.6,0,17.1,0,25.7
			c-455.3,0-910.7,0-1366,0C0-214.9,0-223.5,0-232L0-232z M0-197.6c455.3,0,910.7,0,1366,0c0,8,0,15.9,0,23.9
			c-455.3,0-910.7,0-1366,0C0-181.7,0-189.7,0-197.6L0-197.6z M0-163.2c455.3,0,910.7,0,1366,0c0,7.3,0,14.7,0,22
			c-455.3,0-910.7,0-1366,0C0-148.5,0-155.8,0-163.2L0-163.2z M0-128.8c455.3,0,910.7,0,1366,0c0,6.7,0,13.5,0,20.2
			c-455.3,0-910.7,0-1366,0C0-115.3,0-122,0-128.8L0-128.8z M0-94.3c455.3,0,910.7,0,1366,0c0,6.1,0,12.2,0,18.4
			C910.7-76,455.3-76,0-76C0-82.1,0-88.2,0-94.3L0-94.3z M0-59.9c455.3,0,910.7,0,1366,0c0,5.5,0,11,0,16.5c-455.3,0-910.7,0-1366,0
			C0-48.9,0-54.4,0-59.9L0-59.9z M0-25.5c455.3,0,910.7,0,1366,0c0,4.9,0,9.8,0,14.7c-455.3,0-910.7,0-1366,0C0-15.7,0-20.6,0-25.5
			L0-25.5z M0,8.9c455.3,0,910.7,0,1366,0c0,4.3,0,8.6,0,12.9c-455.3,0-910.7,0-1366,0C0,17.5,0,13.2,0,8.9L0,8.9z M0,43.4
			c455.3,0,910.7,0,1366,0c0,3.7,0,7.3,0,11c-455.3,0-910.7,0-1366,0C0,50.7,0,47,0,43.4L0,43.4z M0,77.8c455.3,0,910.7,0,1366,0
			c0,3.1,0,6.1,0,9.2C910.7,87,455.3,87,0,87C0,83.9,0,80.8,0,77.8L0,77.8z M0,112.2h1366v7.3H0V112.2z"/>
	</g>
</g>
<g id="Objects">
	<path class="st4" d="M450.4,396.4c5.6,0.2,11.2,0.2,16.7,0.1c20.1-0.5,37.6-3,39.8-7.3c1-1.9-2.2-4.5-11.3-7.7
		c-1.1-0.4-2.2-0.8-3.3-1.2c-29.8-10.8-59.6-26.4-80.5-42c-21.2-15.8-33.5-31.6-28-42.5c0.1-0.1,0.2-0.3,0.2-0.4
		c0.6-1,1.2-2,1.9-2.9c5.7-7.4,15.8-11.1,27.9-11.7h0c7.8-0.4,16.5,0.5,25.4,2.6l0.3-1.8c0.4-2.1,4-2.9,8-1.8l11.3,3.1l2,0.5
		l2.6,0.7l17.4,4.7c2.8,0.8,4.9,2.6,4.6,4h0c-0.3,1.4-2.8,2-5.6,1.2l-17.4-4.7l-0.7,4l17.4,4.7c2.8,0.8,4.9,2.6,4.6,4l0,0
		c-0.3,1.4-2.8,2-5.6,1.2l-17.4-4.7l0,0l-15.8-4.3c-4-1.1-7-3.7-6.6-5.7l0.5-2.8c-8-1.8-15.8-2.6-22.8-2.3v0
		c-11,0.6-20.3,4-25.6,10.8c-0.7,0.8-1.2,1.7-1.8,2.7c-0.1,0.1-0.1,0.3-0.2,0.4c-5.1,10,6.6,24.9,26.7,39.9
		c20.4,15.2,49.4,30.4,78.4,40.9c1.1,0.4,2.1,0.8,3.2,1.1c12.4,4.4,16.5,8.2,14.8,11.5c-2.5,5-21.1,7.9-42.4,8.4
		c-6.1,0.1-12.4,0.1-18.7-0.2V396.4L450.4,396.4z M785.1,328.7l-14.4-9.3c-4.2-2.7-4.9-6.2-1.6-7.7l4.8-2.2l0,0l2.9-1.3
		c7.1-3.2,16.5-1.6,23.7,1.9c8.2-4.4,20.3-6.5,34.3-5.7c13.8,0.8,29.4,4.4,44.9,11.5c2.8,1.3,5.3,2.6,7.5,4
		c11.1,7,16.2,15.8,16.4,24.9c0.2,8.9-4.4,18-12.6,26.1c-5.4,5.4-12.5,10.2-20.8,14.2c-4.6,2.2-5.4,3.9-3.4,5.1c6,3.8,28.6,6,51,6.3
		c1.4,0,2.8,0,4.1,0v2.7c-0.8,0-1.6,0-2.4,0c-23.8-0.3-48.2-3-55.6-7.6c-4.2-2.7-4.1-5.7,2.6-8.8c8.1-3.9,14.9-8.6,20.2-13.8
		c7.9-7.8,12.3-16.6,12.2-25.1c-0.2-8.3-4.7-16.2-14.6-22.5c-2-1.2-4.2-2.4-6.6-3.5c-14.4-6.6-28.8-10-41.6-10.7
		c-12.9-0.7-24.1,1.2-31.7,5.3c7,4.7,10,11.2,2.1,15l-6.6,3l-1.1,0.5C795.6,332.4,789.4,331.5,785.1,328.7z"/>
	<path class="st4" d="M522.1,301.8c-2.8-1.1-5.5-2.1-8.2-3.2c-0.6,0.1-0.3,0.7,1.1,2.1c5.9,5.8-20.5-6.7-32.5-14.3
		c-2.6-1.6-5.1-3.2-7.4-4.5c-3.1-1.5-6-2.9-8.7-4.4c-3.5-1.3-5.4-1.1-4.5,1.6c2,5.8-18-12-25.1-19.2c-3-3.1-4.8-6.6-6.2-9.2
		c-0.7-1-1.3-1.9-1.8-2.8c-1.2-1.5-2.5-1.7-4.5,0.4c-5.1,5.3-6.5-12.5-1.9-14.6c1.8-0.8,4-2.7,5.3-4.5c0.4-0.8,0.8-1.5,1.3-2.3
		c0.4-1.6-0.6-2.5-4.4-1.4c-9,2.6,8.7-7.6,7.8-9.9c-0.1-0.2-0.2-0.3-0.4-0.5c-0.8-0.3-1.7-0.4-2.7-0.6c-4.3-0.1-12.2,1.9-18.2,5.7
		c-8.4,5.2-10,5-11,2c-1-2.9-4.6-0.6-5.7,8.5c-1.1,9-12.6,5-12.5,0.9c0.1-4.1-3.7-0.9-3.8,7.9c-0.2,8.7-5.6,6.4-8.7,2.3
		c-3.1-4.1-2.9,2.9,5.2,10.5c8.1,7.6,12.9,9.9,3.2,7.3c-9.7-2.6,7.1,5.2,25.9,10.5c6.4,1.8,7.9,2.8,6.6,3.3
		c8.4,2.9,15.3,6.4,17.5,7.8c6.1,4.1-1.2,4.6-7.1,1c-11.2-6.7-18-1.9-7.3,0.7c12.2,3,15.1,8.4,1.2,5.1c-5.8-1.8-10.9-0.2-4.5,1.2
		c6.9,1.5,4,5.9-6.9,2.5c-9.4-3-5.3-0.5-2.9,0.5c7.6,3,1.3,4.7-10.6-0.8c-6.1-2.8-11.8-5.7-17.2-8.8c0,1,0.1,2.1,0.2,3.1
		c0.8,5.8-18.3-9-22.8-14.3c-4.5-5.2-12.2-14.6-17.4-9.9c-5.2,4.7-11.8-16.3-8.8-20.7c0.6-0.9,1.6-2.1,2.6-3.2
		c0.5-2.5,1.8-5,3.7-7.3c-0.6-0.9-2.3-1.4-5.9-1.2c-12.5,0.9,11.1-9.3,24-12c1.7-0.3,3.4-0.7,5.1-1.1c4.3-1.6,9-3.1,14.2-4.5
		c0.5-0.8-2.2-1.2-10.5-0.8c-22.4,1.2,16.3-6.1,30.5-6.1c14.2,0,43.6-2.3,25.2-4.7c-11.9-1.5,14.7-1.6,42-1.2
		c1.8-1.2,12.5-2.4,25.5-1.4c6.9,0.5,11.8,1.4,14.3,2.3c6.2-0.1,12.2,0,18.1,0.1c9.1-0.8,20.8,0.2,26.3,1.2
		c11.8,0.7,22.4,1.3,31.3,1c19.3-0.6,39.2,3.5,19.3,4.7c-0.8,0-1.5,0.1-2.1,0.1c4.1,0.5,8.2,1,12.3,1.6c11.5,0.4,26.7,0.8,34.9,0.9
		c17.1,0.3,19.8,3.5,13.9,5c-5.9,1.5,21.2,2,38,4.1c16.7,2,10.2,4.1,1.5,3.8c-8.8-0.3,20.5,6.1,41.4,8.5c21,2.3,14.2,4.7,9,4.7
		c-5.2,0,9.2,3.8,28.4,7.3c19.2,3.5,15.3,6.1,8.1,5c-7.2-1.2,8.2,3.5,29.2,9c21,5.5,15,8.5,6.9,6.1c-8-2.3,3.2,2,22.1,9
		c19,7,14.8,9.3,4.3,5.5c-10.5-3.8,4.7,3.8,18.5,10.8c11.2,5.7,10.2,7.3,0.8,4.3c4.5,3.8,7.8,7.1,10.3,10c4.5,5.2-1.6,6.6-5.4,2.6
		c-1.5-1.6-4.3-2.4-1.9,0.2c2.5,2.7,1.1,2.9-1.4,3.1c-3.6,0.2-7.5-0.9-12.2-3.3c-8.8-4.6,1.9,5-11.9,1.2c-6.2-1.7-6.6-4.6-7.9-6.5
		c-1.5-2.2-9.1-6.9-12.7-2.7c-1.4,1.6,8,5.4,2,5.8c-10.7,0.7-14.4-7-12.7-11.2c0.8-1.9,1.4-3.2,1.8-4.3c-5.1,0.6-8.3-1.8-6.3-4.4
		c2.5-3.2-1.8-11.4-5.9-8.5c-4.1,2.9-7.4-2.3-12.3-7.9c-4.9-5.5-28.7-14.9-23.7-11.4c5,3.5-6.1,0.3-15.8-5
		c-9.7-5.2-26.7-11.7-21.9-7.3c4.8,4.4-17-6.4-29.2-11.1c-12.2-4.7-26.5-7.9-18.9-3.8c7.6,4.1-19.3-4.7-30.1-8.2
		c-10.8-3.5-24-5.8-30-5c-6,0.9,8.7,7.6,30.8,14c22.1,6.4,23.6,7.6,12.4,5.8c-11.2-1.8,3,3.5,18.9,9c15.9,5.5,41.5,14.3,24.4,9.3
		c-17.1-5-7.2,1.5,13,8.5c20.3,7,9.2,8.5,2,5.8c-0.9-0.3-1.5-0.5-1.9-0.5c2.1,1.6,4.1,3.1,5.9,4.7c3.9,2.5,9.2,5.7,14.8,9
		c14,8.2,6.7,12.2,0.3,7c-6.5-5.2-0.7,2,7.2,11.1c7.9,9,1,10.2-3.4,6.1c-2.3-2.1-4.2-2.9-4.8-1.9c-0.1,0.3-0.2,0.5-0.3,0.8
		c-0.1,1.3,0.4,3.5,2,6.9c4.1,9-3.5,7.6-5.6,4.4c-2-3.2-2.5,0.6-3.6,4.4c-1.1,3.8-3.6,7-7.5,4.4c-3.9-2.6,1.1,3.5,13.1,6.4
		c5.5,1.3,5.9,2.2,3.7,2.5c8.8,1.6,18.2,3.3,24.1,5.9c10.1-2.8,11.3-3.2,11.7,1.5c7.4,1.9,13.7,7.8,5.4,7.5c1.8,4.6-0.5,7.6-10,6.2
		c-16.5-2.3-29.4-4.4-42.1-4c-10.1,0.3-27.8-10.5-29.2-16.3c-0.1-0.5-0.2-1.2-0.1-1.9c-0.7,0.1-1.4,0.2-2.1,0.3
		c-10.5,1.5-10.9-4.7-3.3-5.8c4-0.6,6.7-3,7.2-4.8c0,0,0-0.1,0-0.1c-0.1-0.4-0.1-0.9-0.2-1.3c-0.6-0.7-2-0.9-4.5-0.2
		c-8.1,2.3,2.3-9.6-1.3-7.9c-3.6,1.7-36.8,2-53,2c-16.1,0-54-3.5-41.4-0.6c12.6,2.9,5.3,3.2-5.4,0.9c-10.6-2.3,0.9,1.7,17.2,6.1
		c16.4,4.4,11.9,5,0.7,2.6c-1-0.2-1.8-0.4-2.4-0.5c2.8,1,5.6,2,8.4,3c5.2,1.5,12,3.5,19.5,5.6c9.5,2.8,8.8,3.7,4,4
		c8.4,5.3,7.1,10.8-6.6,10.6c-8.6-0.1-16.5,2.8-15.6,5.8c2.5,7.8-22,5.1-25.5,0.3c-8.6,1.5-13.9,0-15.7-3.6
		c-14.9,1.2-24.9-11.9,1.6-9.6c1-1.8,6.6-5.3-1.2-4.5c-7.8,0.7,2-4.7,14.9-4.7c12.9,0-1.2-2-4.8-5c-3.6-2.9-24.3-10.8-18.7-5.2
		c5.6,5.5-15.7-4.4-27.8-10.5C531.1,306.3,526.1,303.7,522.1,301.8z"/>
	<path class="st5" d="M273.4,391.9c12.5,0.7,25.6,0,36.6-2c10.7-1.9,19.1-4.9,22.5-8.7c2.1-2.4,1.7-5.4-2.4-9
		c-6.4-5.6-6.6-10.7-2.8-15.1c5.6-6.4,21.8-10.3,38.8-11c16.8-0.7,34.7,1.6,43.9,7.6c7.1,4.7,9.6,11.3,3.8,20.2
		c-3.4,5.2-1.8,9.3,3,12.5c9.9,6.5,31.6,9.2,52.3,8.4c20.4-0.7,39.5-4.8,44.5-11.6c2.3-3.1,0.8-7.2-6.3-12.3
		c-0.8-0.6-1.7-1.2-2.5-1.9c-22.7-17.3-42.2-42.2-52.9-67.1c-10.9-25.2-12.8-50.5,0-68c0.2-0.2,0.3-0.5,0.5-0.7
		c1.2-1.6,2.5-3.1,3.8-4.6c10.6-11.9,23.1-17.8,35.6-18.8h0c12.5-1,24.9,3,35.3,10.9c1.3,1,2.5,2,3.7,3.1l-2.9,3.3
		c-1.1-1-2.3-2-3.4-2.8c-9.6-7.3-21-10.9-32.4-10.1v0c-11.4,0.9-22.9,6.4-32.7,17.3c-1.2,1.4-2.4,2.8-3.5,4.3
		c-0.2,0.2-0.3,0.4-0.5,0.6c-11.7,16-9.7,39.8,0.5,63.7c10.4,24.3,29.4,48.6,51.5,65.4c0.8,0.6,1.6,1.2,2.4,1.8
		c9.6,7,11.1,13.2,7.2,18.4c-5.8,8-26.3,12.6-47.9,13.4c-21.4,0.8-44.1-2.1-54.8-9.1c-7-4.6-9.3-10.7-4.2-18.5
		c4.1-6.2,2.4-10.9-2.5-14.1c-8.4-5.5-25.3-7.6-41.4-6.9c-15.9,0.7-30.9,4.1-35.7,9.6c-2,2.3-1.6,5.3,2.5,8.9
		c6.3,5.6,6.6,10.7,2.7,15.1c-4.1,4.6-13.4,8.1-25,10.1c-11.3,2-24.8,2.8-37.6,2.1c-18.3-1-34-2.5-52.6-2.8
		c-11.4,0-209.3,1.2-220.6,0.6v-4.8c10.7,0.3,205.2-0.3,222.9-0.3C241.6,389.3,255.1,390.9,273.4,391.9L273.4,391.9z M1119.5,399.3
		c-14,0.1-30.2-2.3-42.9-4c-13.1-1.8-23.4-5.1-26.5-9.6c-2.5-3.6-1.5-7.4,4.2-11.4c3.2-2.3,4.1-4,3.2-5.3c-3.5-4.9-20.1-8-37.7-8.5
		c-17.8-0.5-36.2,1.7-43,7.3c-2.6,2.1-2.9,5,0.1,8.7c4.4,5.3,3.6,9.8-0.8,13.4c-8.5,7-33,10-56.3,9.5c-23.6-0.5-46.2-4.7-50.6-12.2
		c-2.5-4.3-0.4-9,8.4-14.1c10.6-6.2,20.6-13.7,29.3-22.1c13-12.5,23.3-26.6,28.7-40.1c5.3-13.3,6-26,0.2-35.9
		c-1.2-2-2.6-3.9-4.3-5.6c-10-10.5-22.3-15.9-34.6-17.1c-13.5-1.3-27,2.5-37.8,10.2l-2.5-3.6c11.6-8.3,26.2-12.3,40.7-11
		c13.3,1.3,26.5,7.1,37.3,18.4c1.9,2,3.6,4.2,4.9,6.5c6.5,11.2,5.8,25.3,0,39.7c-5.7,14.2-16.3,28.8-29.7,41.7
		c-9,8.6-19.2,16.3-30.1,22.7c-6.1,3.5-7.9,6.2-6.8,8.1c3.5,6.1,24.6,9.6,46.9,10c22.5,0.5,45.9-2.2,53.5-8.5
		c2.3-1.9,2.7-4.3,0.2-7.3c-5-6.1-4.2-11,0.5-14.8c7.6-6.3,27.2-8.8,45.8-8.2c18.8,0.5,36.9,4.2,41.2,10.3c2.5,3.5,1.5,7.4-4.2,11.4
		c-3.2,2.3-4,4-3.1,5.3c2.4,3.5,11.6,6.2,23.6,7.8c12.4,1.7,28.2,3.8,42,4.3c15.2,0,37.8-0.4,51-0.4c9.7-0.2,191-0.1,195.7-0.7v3.8
		c-6.1,0.5-188.4,1-195.5,1C1155.8,399.2,1136.3,399.6,1119.5,399.3z"/>
	<path class="st6" d="M598.7,282.8c-29.5-38.5-48.8-75-52.1-108.5c-3.8-39.2,14.2-71.5,38.7-97.1C633.4,26.9,486.6,91,481.4,151
		c-1,11.8,6.6,25.1,15.9,34.8c6.8,7.1,10.6,17.3,11.1,21.2c1,9-6.8,10.1-8.3,2.3c-2.9-14.8-15.6-4.2-8.1,1.5
		c8.5,6.6,4.8,18.5-5.1,11.3c-3.5-4.1-10.7-0.4-6,2.8c5,3.3-3.4,13.2-10,5.5c-5.7-6.6-4.8-1-3.5,1.1c3.9,6.7-4.4,10.3-9.5-1.8
		c-8-18.9-11-41-12.5-61.5C438.7,76.6,570,17.6,688.4,28.4C784.6,37.1,873,86,905.2,154.7c20.7,44.2,19.7,77.4,15.9,99.4
		c-1.9,11.5-9.7,14.5-8.6,5.7c0.4-3.5-1.4-5.3-2.1,0.3c-0.8,5.9-2.6,6.5-5.2,6.8c-3.8,0.5-6.4-2-8.1-7.3c-3.1-10.1-4.3,11-13.4,2.8
		c-4.1-3.8-0.9-10.2,0.2-14.5c1.3-4.9-0.6-15.3-9.4-6c-3.4,3.6,1.4,11.9-5.2,12.9c-11.6,1.6-5.7-15.6,1.2-24.9
		c10-13.5,11.7-13.6,14.5-30.3c13.5-81-170.2-207.3-101.3-99.7c16.4,25.6,32.7,71.3,20.8,110.7c-13.1,43.1-31.4,60-62.4,89l0,0
		c-4.8,4.6-3,15.6,2.5,18.8c7.7,4.4,18,8.4,21.3,15.5c13.5-6.2,22.9,1.2,17.3,11.8c5.1,4.1,4.2,17.2-3.9,16.6
		c-3.9,10.2-17.4,8.4-25.2,5.4c-13.6-5.2-18-19.3-31.1-18.5c-10.4,0.6-20.9-13.5-15.1-26.3c3-6.7,13.6-21.2,16.9-27.3
		c21-43.4,21.2-60.6-44.2-61.6c-65.4-1-69.9,21.7-53.6,55c5.6,10.4,16.3,22,20.6,31.6c6,13.2-2.2,29.6-18,29.2
		c-8.5-0.2-20,6.3-22.7,12.7c-7.1,17.3-28.3,11.2-25.9,0.8c-10.5,3.4-16.2-2.2-13.5-10.4c-17.3,2.7-9.5-29.4,17.4-20.3
		c-0.6-5.9,17.9-19.6,28.4-19.2C625.3,313.8,602.8,288.1,598.7,282.8z"/>
	<path class="st7" d="M869.3,254.9c-4.4,0.6-6.3-1.6-6.5-5c0.2,0,0.4,0,0.6,0C866.3,249.8,868.7,252,869.3,254.9z"/>
	<path class="st7" d="M508.4,208.4c0.1,3.8-1.5,5.9-3.4,6.2c-0.2-0.5-0.3-1.1-0.3-1.7C504.7,210.5,506.3,208.6,508.4,208.4z"/>
	<path class="st6" d="M674.9,26.8c-25.2-1.9-96.8-4.5-81.3,0.6c15.5,5.2-16.8,10.3-31,10.3c-14.2,0-62,16.1-38.1,13.6
		c23.9-2.6-0.6,8.4-16.8,14.2C491.6,71.3,455.4,93.9,469,92c13.6-1.9-6.5,16.1-14.8,25.8c-8.4,9.7-27.8,56.1-16.8,45.8
		c11-10.3,7.1,10.3,5.2,21.9c-1.9,11.6-1.3,44.5,5.2,31.6c6.5-12.9,14.2-26.5,27.8-26.5c13.6,0,34.9,3.2,22.6-8.4
		c-12.3-11.6-19.4-29-12.9-23.2c6.5,5.8,4.5,0.6,5.8-16.1c1.3-16.8,9.7-32.3,7.7-23.2c-1.9,9,0.6,14.2,11.6-5.2
		c11-19.4,18.7-26.5,13.6-17.4c-5.2,9,1.3,18.1,13.6-1.9c12.3-20,18.7-25.2,16.1-18.7c-2.6,6.5-1.3,7.1,13.6-4.5
		c14.8-11.6,29-15.5,27.1-10.3c-1.9,5.2-32.3,27.8-20,21.9c12.3-5.8-5.2,13.6-12.3,18.1c-7.1,4.5-27.8,43.9-16.1,32.3
		c11.6-11.6,0,9.7-1.9,25.8c-1.9,16.1-3.9,55.5,1.3,42.6c5.2-12.9,9-0.6,11.6,16.1c2.6,16.8,13.6,44.5,14.8,31.6
		c1.3-12.9,6.5,3.9,11,17.4c4.5,13.6,13.6,35.5,14.8,23.2c1.3-12.3,12.3,5.2,12.3,11.6c0,6.5,11.6,11-1.3,11
		c-12.9,0-31,12.3-20.7,10.3c10.3-1.9-16.8,9.7-3.9,11.6c12.9,1.9,28.4-10.3,41.3-10.3c12.9,0,38.7,5.8,25.2-7.7
		c-13.6-13.6-23.9-23.2-15.5-18.1c8.4,5.2,13.6,3.9,2.6-5.8c-11-9.7-17.4-18.7-9.7-13.6c7.7,5.2,15.5,4.5,6.5-1.9
		c-9-6.5,24.5,1.3,40.7,1.3c16.1,0,49.7-0.6,55.5-4.5c5.8-3.9-19.4,22.6-8.4,17.4c11-5.2-1.3,11.6-10.3,14.2
		c-9,2.6-16.1,16.1-3.9,12.9c12.3-3.2,20.7-6.5,28.4-1.3c7.7,5.2,20.7,3.9,12.3-2.6c-8.4-6.5-5.8-20-5.2-14.2
		c0.6,5.8,7.1-1.3,12.9-9.7c5.8-8.4,11-16.8,9-9.7c-1.9,7.1,3.9,10.3,11-9.7c7.1-20,11-21.9,10.3-12.9c-0.6,9,7.7,6.5,11-13.6
		c3.2-20,6.5-36.1,6.5-24.5c0,11.6,12.3,2.6,8.4-15.5c-3.9-18.1-6.5-34.8-2.6-29c3.9,5.8,16.8,2.6,5.2-12.9
		c-11.6-15.5-13.6-29.7-2.6-18.7c11,11-3.9-8.4-12.9-20.7c-9-12.3-16.8-23.9-7.7-20c9,3.9,9,1.3-5.2-12.9
		c-14.2-14.2-20.7-29-13.6-31c7.1-1.9,17.4,3.2,23.9,11c6.5,7.7,22.6,27.1,20,18.1c-2.6-9,7.7-1.9,14.2,8.4
		c6.5,10.3,14.8,34.2,15.5,24.5c0.6-9.7,9.7,4.5,12.9,16.1c3.2,11.6,10.3,18.7,9.7,11c-0.6-7.7,11.6,12.9,9.7,25.2
		c-1.9,12.3-5.2,23.9,2.6,17.4c7.7-6.5,1.9,11.6-4.5,18.7c-6.5,7.1-4.5,13.6,5.8,7.7c10.3-5.8,27.8-7.1,36.1,7.1
		c8.4,14.2,14.2,12.3,9-3.2c-5.2-15.5-11-32.3-5.2-23.9c5.8,8.4,12.9,3.2,2.6-12.3c-10.3-15.5-16.1-25.2-11-20
		c5.2,5.2,14.8-1.3,0.6-13.6c-14.2-12.3-23.9-22.6-18.1-20c5.8,2.6,12.9-3.2-1.9-11c-14.8-7.7-24.5-16.1-19.4-16.1
		c5.2,0,14.8-5.2-3.2-10.3c-18.1-5.2-39.4-19.4-31-18.7c8.4,0.6,17.4-3.9,3.2-8.4c-14.2-4.5-40.7-5.8-32.9-9c7.7-3.2,9-10.3-7.7-11
		c-16.8-0.6-63.2-3.2-41.9-5.8c21.3-2.6,6.5-11.6-13.6-10.3C728.4,33.2,705.2,25.5,674.9,26.8z"/>
	<circle class="st8" cx="708.4" cy="89.1" r="46.2"/>
	<circle class="st8" cx="633.1" cy="89.5" r="38.8"/>
	<path class="st9" d="M637.3,54.1c16.9,2.3,28.6,17.9,26.3,34.8c-2.3,16.9-17.9,28.6-34.8,26.3c-16.9-2.3-28.6-17.9-26.3-34.8
		C604.9,63.5,620.5,51.8,637.3,54.1z"/>
	<g>
		<path class="st10 eye" d="M651.4,63.8c6.2,0.9,10.5,6.6,9.6,12.7c-0.9,6.2-6.6,10.5-12.7,9.6c-6.2-0.9-10.5-6.6-9.6-12.7
			C639.5,67.3,645.2,63,651.4,63.8z"/>
		<circle class="st9" cx="656.4" cy="81.1" r="3.7"/>
	</g>
	<path class="st9" d="M713.7,46.5c20.8,2.9,35.4,22.2,32.5,43c-2.9,20.8-22.2,35.4-43,32.5c-20.8-2.9-35.4-22.2-32.5-43
		C673.6,58.2,692.9,43.6,713.7,46.5z"/>
	<g>
		<path class="st10 eye" d="M728.8,60.8c7.6,1.1,12.9,8.1,11.9,15.7c-1.1,7.6-8.1,12.9-15.7,11.9c-7.6-1.1-12.9-8.1-11.9-15.7
			C714.1,65.1,721.2,59.8,728.8,60.8z"/>
		<circle class="st9" cx="735" cy="82.2" r="4.5"/>
	</g>

	<path class="st6" d="M681.5,279.5c66.7,0,121.1-32.1,121.1-71.5c0-39.4-54.4-71.4-121.1-71.4c-66.7,0-121.1,32.1-121.1,71.4
		C560.4,247.4,614.8,279.5,681.5,279.5z"/>
	<path class="st9" d="M693.5,27c16-2.8,33.1,4.3,24.7,6c-8.4,1.7,5.1,2.9,16.8,3.6c11.7,0.7,15.8,7.3,6.9,7.1s6,2,11.5,8.1
		c5.5,6.2,7.8,9.9-1.9,4.6c-9.7-5.3-41.2-19.4-58.1-19.7C676.5,36.6,677.4,29.8,693.5,27z"/>
	<path class="st9" d="M664.2,21.7c-16.6-3.2-34.5,3.9-25.7,5.9c8.7,1.9-5.3,2.9-17.5,3.4c-12.1,0.5-16.5,7.3-7.3,7.3
		c9.2,0-6.3,2-12.1,8.3c-5.8,6.3-8.2,10.2,1.9,4.9c10.2-5.4,41.5-18,59-18C679.9,33.3,680.9,24.8,664.2,21.7z"/>
	<path class="st11" d="M675.7,195c6.4,0,11.7-8.3,11.7-18.6c0-10.2-5.3-18.6-11.7-18.6c-6.4,0-11.7,8.3-11.7,18.6
		C664,186.6,669.3,195,675.7,195z"/>
	<path class="st12" d="M878.9,251.1c-7.6,1.7-14.8,4.9-21.1,9.4"/>
	<path class="st13" d="M497.1,212c11.6,0.4,22.9,5.2,32.2,13.6"/>
	<path class="st6" d="M666.3,70.1c-49.7-2.2-76.1,18.2-82.2,27C587.2,56.4,642.6,13.1,666.3,70.1z"/>
	<path class="st6" d="M664.4,63.2c49.6-2.2,94,18.5,100.1,27.3C757.8,47.8,705.5,12.2,664.4,63.2z"/>
	<path class="st7" d="M564.9,336.8c2.7,0,4.5,2.7,4,6c-0.5,3.3-3,6-5.7,6c-2.7,0-4.5-2.7-4-6C559.7,339.5,562.3,336.8,564.9,336.8z"
		/>
	<path class="st7" d="M577.2,347.1c2.9,0.8,4.1,4.3,2.6,7.8c-1.5,3.5-5.1,5.7-8,4.9s-4.1-4.3-2.6-7.8
		C570.6,348.5,574.2,346.3,577.2,347.1z"/>
	<path class="st7" d="M595.1,355.4c4.4,0.8,6.7,4.3,5.2,7.8s-6.3,5.7-10.7,4.9c-4.4-0.8-6.7-4.3-5.2-7.8
		C585.9,356.8,590.7,354.6,595.1,355.4z"/>
	<path class="st7" d="M777.6,332.7c-2.7,0-4.5,2.7-4,6c0.5,3.3,3,6,5.7,6c2.7,0,4.5-2.7,4-6C782.8,335.4,780.2,332.7,777.6,332.7z"
		/>
	<path class="st7" d="M775.8,346.5c-2.9,0.8-4.1,4.3-2.6,7.8c1.5,3.5,5.1,5.7,8,4.9c2.9-0.8,4.1-4.3,2.6-7.8
		C782.4,347.9,778.8,345.7,775.8,346.5z"/>
	<path class="st7" d="M763.9,354.6c-4.4,0.8-6.7,4.3-5.2,7.8c1.5,3.5,6.3,5.7,10.7,4.9c4.4-0.8,6.7-4.3,5.2-7.8
		C773.1,356,768.3,353.8,763.9,354.6z"/>
	<g >
		<path class="st14" d="M884.7,161.7v-2.1c0,0,0,0,0,0c0,0,0,0,0,0v-0.9c1.3-5.8-2.9-21.5,10.6-12.9c7.6,4.8-2-8.1-2.9-9.2
			c3.1,2.2,4.9,4.3,6.4,7.9c2.9,7.3-6,1.5-6.8,1.1C882.7,141.2,889.5,162.4,884.7,161.7L884.7,161.7z M913.2,200.2
			c1.7,3.1,11.6,23.8,7.1,27.1c-4.1,3-6.8-15.6-14.6-6.4c-3.5,4.2-12.9,11.3-18.9,9c-7.1-2.7,16.5-21.2,8.7-24.2
			c-1.1-0.4-2.7-0.2-3.8-0.1c1.3-0.4,2.1-0.8,3.5-0.6c10,1.3-10.1,22.4-7.7,23.2c5,1.7,13.6-5.3,16.6-8.7c8.4-9.7,11.7,3.9,15.3,6.3
			C921.5,222.7,914.4,203.1,913.2,200.2z M884.7,158.7v0.9c0,0,0,0,0,0l0,0v2.1c-0.3,0-0.5-0.1-0.9-0.3c-5.4-2.8-8.4-22.3-8.5-27.8
			c0.6,3.4,5.8,24.4,9.1,26C884.5,159.3,884.6,159,884.7,158.7L884.7,158.7z M857.2,117v-2.2l0,0l0,0l0,0v-1.5
			c0.8-4.5-0.1-5.9,8.4-8.7c2-0.6,7.7-1.7,9.2-2.7c0,0,0,0,0,0c0-0.4-3.1-2-3.1-2c7.6,1.6,3,3.4-1.7,5c-15.3,5.1-8.6,6.8-11.4,11.1
			C858.1,116.6,857.7,116.9,857.2,117z M754.3,266.2c-0.4,5-1.3,17.8-7,21.1c-1.9,1.1-2.4-0.7-2.5-2.4v-4c2.1-0.8,1.7,2.5,1.9,4.2
			C750.9,281.2,753.2,270.8,754.3,266.2L754.3,266.2z M857.2,113.3v1.5l0,0l0,0v2.2c-3.8,0.4-8.1-18.2-8.1-18.2
			c0.5,1.3,5.4,14,7.9,15.9C857.1,114.1,857.1,113.7,857.2,113.3L857.2,113.3z M744.8,340.7v-1.9l0,0l0,0v0l0,0
			c0.8-0.6,0.6-2.7,0-5.4v-5.2c2.1,5,3.4,10.1,1.1,12C745.6,340.5,745.2,340.7,744.8,340.7L744.8,340.7z M744.8,214.4v-1.1
			c0.5-0.5,1.1-1.1,1.8-1.7c12.9-12.4,6.2,9.9,13.3,12c6.3,1.9,4.8-15.5,7.3-18.7c6.2-7.8,16.8,18.8,17.7,19.1l0,0c0,0,0,0,0,0
			c4.3-3.4-0.9-29.1-2-33.6c2.7,7.6,7.6,25.8,3.9,33.7c-2.6,5.4-5.3-2.8-8.3-8.6c-4.1-7.8-10-15.7-11-3.1c-0.2,3.2-2.2,16-8.8,12.5
			c-8.4-4.4,0.3-23.1-11.5-12.7C746.4,213,745.6,213.8,744.8,214.4L744.8,214.4z M778.2,113.4c0.7,1.8,9.4,30.6,1,26.9
			c-6.4-2.7-12.6-19.3-13.9-8.8c-1.1,8.9-1.9,20.3-9.9,26.1c-4.6,3.4-5.2-3.5-5.3-6.4c0.4,2,1.2,8.4,4.7,5.6
			c7.4-6,7.7-16.9,8.5-25.5c1.4-14.3,12.7,3.8,15.3,6.4C785.4,144.4,778.3,113.8,778.2,113.4z M744.8,284.9c-0.1-0.9,0-1.7,0-2.1
			c-1.7,1.3-11,10.6-9.4,3.6c1,3.1,1.3,2.3,4.9-1.7c2.2-2.3,3.6-3.5,4.5-3.8V284.9L744.8,284.9z M744.8,213.3v1.1
			c-2.9,2.4-5,3-4.5-3.2C740.9,216.6,741.6,216.4,744.8,213.3L744.8,213.3z M744.8,328.2v5.2c-1.5-6.2-5.7-15.6-6.4-17.1
			C739.5,317.8,742.6,323,744.8,328.2L744.8,328.2z M744.8,338.8c-6.3-3.1-10.2-23.3-18.1-10.7c-4.7,7.5-9.5,15.4-12.1,4.1
			c-0.6,17.9,15.7-5.9,15.8-5.9c3.9-2.8,9.9,14.6,14.4,14.4V338.8L744.8,338.8L744.8,338.8L744.8,338.8L744.8,338.8z M601.2,277.3
			v-2.2l0,0l0,0v-0.4c1.3-3,8.4-22.7,12.9-9.4c1.5,4.4,1.1,7.3,0.9,11.9c-4.2-31.1-9.5-3.5-12.4-0.8
			C602.1,276.9,601.6,277.2,601.2,277.3L601.2,277.3z M601.2,196.4v-2.8c3.4-7.4,6.3-22.8,13.1-15.3c2.3,2.6,3.3,5.9,4.4,9.1
			c-7.2-14.3-9.8-13.3-14.6,2.6C603.2,192.8,602.2,195,601.2,196.4L601.2,196.4z M631.5,311.4c2.2,4.2,7.2,18,3.2,22.4
			c-4.7,5.1-8.2-14.9-13-10.9c-6.5,5.4-18.5,24.2-17.7,6.9c0.5,3.6,0.5,4.1,1.1,5.4c1.6,3.7,12-10.4,14.4-12.9
			c7.8-8.2,10.7,11.1,13.7,10.5C636.8,331.9,632.1,313.4,631.5,311.4L631.5,311.4z M645.5,228.3c-0.1,2.8-1,30.4,6.3,28.3
			c5.8-1.7,12-26.3,21.9,1.4c3.1,8.6,10.4,10.8,13.9,1.5c-0.8,8.6-10.8,10.5-15.4-1c-10.6-26.7-12.2,2-21.7,0
			C641.7,256.6,644.6,233.7,645.5,228.3z M601.2,193.6v2.8c-3.6,5-7.8,1.9-10.7-7.1c-2.3-7.4-0.4-30.5-13.4-13.8c0,0-9.3,17-11,9
			c-2.5-11.7,3.6-36,8.6-46.7c-2.3,6.5-10.8,42-6.5,46.9l0.1,0.1l0,0l0,0l0,0l0,0c2-0.4,14.1-26.3,20.9-14.2
			c2.4,4.3,1.6,25.4,8.6,26.6C599,197.4,600.1,195.9,601.2,193.6L601.2,193.6z M601.2,274.7v0.4l0,0l0,0v2.2
			c-5.3,0.8-4.6-27.9-4.5-28.8c0.4,3.4,2,24.2,4.4,26.5C601.1,274.9,601.1,274.8,601.2,274.7L601.2,274.7z M507.4,76.1
			c-1,1.6-11.7,19.8-9.3,21l0,0c1.4,0.1,34-22.9,24.5-8.1l0.6-2c2.3-9-20.2,13.2-25.5,12.1C490.2,97.5,506.2,77.5,507.4,76.1
			L507.4,76.1z M455.5,131.7c-0.6,3.1-4.3,19.1-3.6,22.5c6.4-4.6,12-26.7,15.8,0.7c-2.2-6.7-2.9-9.1-2.9-9.1
			c-3.2-8.5-5.4,5-11.5,9.9C445,162.3,455.3,132.1,455.5,131.7L455.5,131.7z M463.4,190.4c0.3,2.9,2.8,27.1,6.6,28.1
			c3.7-3.9-4-38.1,10.9-28.8c5.5,3.4,5.6,3.1,2.2-4.7l-3.9-8.1l4.8,7.6l2.4,5.6c2,6.4-7.5,0.2-7.9,0c-10-4.5-1.6,30.2-8.5,30.1
			C463.6,220.3,463.4,193.8,463.4,190.4z"/>
	</g>


	<g>
		<path class="st9" d="M516.9,211.1l-5.9,11.2c-1.7,3.3-0.5,7.4,2.9,9.2l13,6.9l12.2-23.3l-13-6.9
			C522.8,206.5,518.7,207.8,516.9,211.1z"/>
		<path class="st9" d="M529,215.2L529,215.2c-1.2,2.3-0.3,5.2,2,6.4l18.1,9.5c2.3,1.2,5.2,0.3,6.4-2l0,0c1.2-2.3,0.3-5.2-2-6.4
			l-18.1-9.5C533.1,212,530.2,212.8,529,215.2z"/>
		<path  class="st9" d="M521.2,230L521.2,230c-1.2,2.3-0.3,5.2,2,6.4l18.1,9.5c2.3,1.2,5.2,0.3,6.4-2l0,0c1.2-2.3,0.3-5.2-2-6.4
			l-18.1-9.5C525.3,226.8,522.4,227.7,521.2,230z"/>
	</g>
	<path  class="st9" d="M853.9,284.5l-8.6,4.8l-17.1-30.6l8.6-4.8C858.2,241.8,875.2,272.2,853.9,284.5z"/>
	<path  class="st9" d="M831.5,286.6l-8.3-14.8c-2.4-4.4-0.9-9.9,3.5-12.4l6.2-3.4l17.1,30.7l-6.2,3.4
		C839.5,292.5,834,290.9,831.5,286.6z"/>
	<path class="st15" d="M843.1,266.8l-8.9,5c-6,3.4-11-4.7-4.6-8.3l8.9-5C843.6,255.7,849.2,263.4,843.1,266.8z"/>

	<path  class="st15" d="M851.3,281.5l-8.9,5c-6.6,3.7-10.8-4.9-4.6-8.3l8.9-5C852.7,269.8,857.2,278.2,851.3,281.5z"/>
</g>
</svg>
